{"asset":{"version":"2.0","generator":"Blockbench 4.10.4 glTF exporter"},"scenes":[{"nodes":[4],"name":"blockbench_export"}],"scene":0,"nodes":[{"translation":[0,1.125,0],"name":"Stone","mesh":0},{"translation":[0.6875,0.625,0.0625],"name":"cuboid","mesh":1},{"rotation":[3.830025698996083e-17,0.9469301294951057,-3.830025698996083e-17,0.3214394653031614],"translation":[-0.5625,0.625,-0.5],"name":"cuboid","mesh":2},{"rotation":[0,-0.9396926207859083,0,0.3420201433256688],"translation":[-0.625,0.625,0.375],"name":"cuboid","mesh":3},{"children":[0,1,2,3]}],"bufferViews":[{"buffer":0,"byteOffset":0,"byteLength":840,"target":34962,"byteStride":12},{"buffer":0,"byteOffset":840,"byteLength":840,"target":34962,"byteStride":12},{"buffer":0,"byteOffset":1680,"byteLength":560,"target":34962,"byteStride":8},{"buffer":0,"byteOffset":2240,"byteLength":180,"target":34963},{"buffer":0,"byteOffset":2420,"byteLength":576,"target":34962,"byteStride":12},{"buffer":0,"byteOffset":2996,"byteLength":576,"target":34962,"byteStride":12},{"buffer":0,"byteOffset":3572,"byteLength":384,"target":34962,"byteStride":8},{"buffer":0,"byteOffset":3956,"byteLength":132,"target":34963},{"buffer":0,"byteOffset":4088,"byteLength":576,"target":34962,"byteStride":12},{"buffer":0,"byteOffset":4664,"byteLength":576,"target":34962,"byteStride":12},{"buffer":0,"byteOffset":5240,"byteLength":384,"target":34962,"byteStride":8},{"buffer":0,"byteOffset":5624,"byteLength":132,"target":34963},{"buffer":0,"byteOffset":5756,"byteLength":576,"target":34962,"byteStride":12},{"buffer":0,"byteOffset":6332,"byteLength":576,"target":34962,"byteStride":12},{"buffer":0,"byteOffset":6908,"byteLength":384,"target":34962,"byteStride":8},{"buffer":0,"byteOffset":7292,"byteLength":132,"target":34963}],"buffers":[{"byteLength":7424,"uri":"data:application/octet-stream;base64,"}],"accessors":[{"bufferView":0,"componentType":5126,"count":70,"max":[0.34375,0.75,0.3086117208003998],"min":[-0.40625,-0.75,-0.3788882791996002],"type":"VEC3"},{"bufferView":1,"componentType":5126,"count":70,"max":[0.9699625372886658,0.6340294480323792,0.9802528023719788],"min":[-0.8364753127098083,-0.6340294480323792,-0.8387941718101501],"type":"VEC3"},{"bufferView":2,"componentType":5126,"count":70,"max":[0.6131016612052917,0.6484375],"min":[0,0],"type":"VEC2"},{"bufferView":3,"componentType":5123,"count":90,"max":[69],"min":[0],"type":"SCALAR"},{"bufferView":4,"componentType":5126,"count":48,"max":[0.5,1.1875,0.25],"min":[-0.25,-0.625,-0.3125],"type":"VEC3"},{"bufferView":5,"componentType":5126,"count":48,"max":[1,0.6556100845336914,0.986393928527832],"min":[-0.9056603908538818,-1,-0.9713237285614014],"type":"VEC3"},{"bufferView":6,"componentType":5126,"count":48,"max":[0.78125,0.78125],"min":[0,0],"type":"VEC2"},{"bufferView":7,"componentType":5123,"count":66,"max":[47],"min":[0],"type":"SCALAR"},{"bufferView":8,"componentType":5126,"count":48,"max":[0.5,1.1875,0.25],"min":[-0.25,-0.625,-0.3125],"type":"VEC3"},{"bufferView":9,"componentType":5126,"count":48,"max":[1,0.6556100845336914,0.986393928527832],"min":[-0.9056603908538818,-1,-0.9713237285614014],"type":"VEC3"},{"bufferView":10,"componentType":5126,"count":48,"max":[0.78125,0.78125],"min":[0,0],"type":"VEC2"},{"bufferView":11,"componentType":5123,"count":66,"max":[47],"min":[0],"type":"SCALAR"},{"bufferView":12,"componentType":5126,"count":48,"max":[0.5,1.1875,0.25],"min":[-0.25,-0.625,-0.3125],"type":"VEC3"},{"bufferView":13,"componentType":5126,"count":48,"max":[1,0.6556100845336914,0.986393928527832],"min":[-0.9056603908538818,-1,-0.9713237285614014],"type":"VEC3"},{"bufferView":14,"componentType":5126,"count":48,"max":[0.78125,0.78125],"min":[0,0],"type":"VEC2"},{"bufferView":15,"componentType":5123,"count":66,"max":[47],"min":[0],"type":"SCALAR"}],"materials":[{"pbrMetallicRoughness":{"metallicFactor":0,"roughnessFactor":1,"baseColorTexture":{"index":0}},"alphaMode":"MASK","alphaCutoff":0.05,"doubleSided":true},{"pbrMetallicRoughness":{"metallicFactor":0,"roughnessFactor":1,"baseColorTexture":{"index":1}},"alphaMode":"MASK","alphaCutoff":0.05,"doubleSided":true}],"textures":[{"sampler":0,"source":0,"name":"texture"},{"sampler":1,"source":1,"name":"texture"}],"samplers":[{"magFilter":9728,"minFilter":9728,"wrapS":33071,"wrapT":33071},{"magFilter":9728,"minFilter":9728,"wrapS":33071,"wrapT":33071}],"images":[{"mimeType":"image/png","uri":"data:image/png;base64,"},{"mimeType":"image/png","uri":"data:image/png;base64,"}],"meshes":[{"primitives":[{"mode":4,"attributes":{"POSITION":0,"NORMAL":1,"TEXCOORD_0":2},"indices":3,"material":0}]},{"primitives":[{"mode":4,"attributes":{"POSITION":4,"NORMAL":5,"TEXCOORD_0":6},"indices":7,"material":1}]},{"primitives":[{"mode":4,"attributes":{"POSITION":8,"NORMAL":9,"TEXCOORD_0":10},"indices":11,"material":1}]},{"primitives":[{"mode":4,"attributes":{"POSITION":12,"NORMAL":13,"TEXCOORD_0":14},"indices":15,"material":1}]}]}